<?xml version="1.0" encoding="UTF-8" standalone="yes"?>
<!DOCTYPE svg PUBLIC "-//W3C//DTD SVG 1.1//EN" "http://www.w3.org/Graphics/SVG/1.1/DTD/svg11.dtd">

<svg width="250" height="250" viewBox="0 0 250 250" xmlns="http://www.w3.org/2000/svg" xmlns:xlink="http://www.w3.org/1999/xlink" version="1.1" baseProfile="full">
    <g transform="scale(1.000000,-1.000000) translate(0,-250)">
        <path d="M 112.641227 162.762455 L 110.964935 162.448150 L 107.947601 161.505234 L 104.343571 159.975616 L 100.907164 157.901200 L 96.087813 154.401934 L 92.358061 151.279835 L 87.412991 146.250950 L 85.149994 142.982175 L 84.730921 142.018304 L 84.479476 141.473510 L 83.473699 139.964845 L 83.473699 184.721918 L 83.033674 189.310778 L 81.713590 192.684318 L 79.806803 195.093995 L 77.606668 196.791241 L 74.798874 197.964649 L 71.739636 198.467536 L 54.641430 198.467536 L 52.409860 195.743548 L 49.905901 193.271016 L 47.129543 191.049931 L 44.080774 189.080284 L 40.822469 187.466847 L 37.417503 186.314394 L 33.865861 185.622925 L 30.167528 185.392436 L 24.195726 186.000089 L 21.382700 186.759660 L 18.684909 187.823063 L 13.739838 190.693718 L 9.465288 194.444428 L 5.945067 198.970422 L 3.262998 204.166938 L 1.565746 209.866337 L 1.000000 215.901002 L 1.607654 222.019478 L 2.367224 224.890128 L 3.430627 227.635066 L 6.259373 232.643000 L 9.884362 236.938503 L 14.242726 240.458725 L 19.271612 243.140794 L 24.803384 244.838042 L 30.670416 245.403792 L 34.436849 245.162827 L 38.025161 244.439929 L 41.435366 243.235093 L 44.667477 241.548314 L 47.648144 239.463417 L 50.304019 237.064225 L 52.635111 234.350727 L 54.641430 231.322915 L 75.259855 231.322915 L 75.595114 231.322915 L 80.885930 230.097128 L 85.862421 228.431316 L 90.524606 226.325472 L 94.872503 223.779588 L 98.371770 221.139422 L 101.829126 217.912556 L 105.076947 214.078031 L 107.947601 209.614896 L 110.378229 204.481247 L 112.305968 198.635165 L 113.563192 191.971895 L 113.982262 184.386659 L 113.982262 162.762455 Z M 196.455961 137.953291 L 195.890217 131.960535 L 194.192963 126.386856 L 191.531847 121.357970 L 188.074488 116.999605 L 183.862796 113.416525 L 178.938682 110.713499 L 173.469775 109.016248 L 167.623693 108.450501 L 163.783921 108.701943 L 160.143226 109.456273 L 156.701592 110.713494 L 153.459002 112.473609 L 150.478331 114.631841 L 147.822455 117.083418 L 145.491364 119.828347 L 143.485049 122.866637 L 126.386843 122.866637 L 123.159971 122.531380 L 120.184553 121.525601 L 117.942510 120.016937 L 115.910001 117.837752 L 115.066612 116.433852 L 114.464194 114.736608 L 113.982262 110.462055 L 113.982262 67.213647 L 113.647003 69.728090 L 113.589382 69.995250 L 113.416516 70.461467 L 112.725041 71.991088 L 110.042970 76.600899 L 105.768418 82.300301 L 103.128254 85.191912 L 100.236646 87.832074 L 95.291577 91.352293 L 90.346507 93.866736 L 85.149994 96.045919 L 83.473699 96.045919 L 83.473699 110.797314 L 83.892769 118.382550 L 85.149994 125.045820 L 87.098687 130.870945 L 89.592175 135.941737 L 92.567596 140.300105 L 95.962094 143.987952 L 99.587085 147.047194 L 103.253976 149.519725 L 107.748552 151.950360 L 112.515506 153.878097 L 117.554857 155.302943 L 122.866624 156.224905 L 123.201883 156.224905 L 143.485049 156.224905 L 145.716618 158.990797 L 148.220578 161.421422 L 150.996938 163.516786 L 154.045706 165.276897 L 157.304007 166.670321 L 160.708974 167.665621 L 164.260618 168.262799 L 167.958951 168.461857 L 173.909798 167.854204 L 176.696631 167.094633 L 179.357755 166.031230 L 184.198060 163.160575 L 188.325932 159.409865 L 191.699477 154.883871 L 194.276778 149.687355 L 195.911169 143.987956 L 196.455961 137.953291 Z M 83.473699 1.000000 L 83.473699 43.242631 L 83.012720 47.726722 L 81.629775 51.121217 L 79.660131 53.593754 L 77.439038 55.311954 L 74.589338 56.652991 L 71.404377 57.323508 L 54.641430 57.323508 L 52.546060 54.295693 L 50.115438 51.582195 L 47.349555 49.183004 L 44.248403 47.098109 L 40.916763 45.411331 L 37.459412 44.206495 L 33.876338 43.483596 L 30.167528 43.242631 L 27.123998 43.399782 L 24.195726 43.871239 L 21.382700 44.657002 L 18.684909 45.757073 L 13.739838 48.711540 L 9.465288 52.546067 L 5.945067 57.176829 L 3.262998 62.520022 L 1.565746 68.345146 L 1.000000 74.421715 L 1.565746 80.414471 L 3.262998 85.988150 L 5.966021 91.017036 L 9.549103 95.375401 L 13.928421 98.958484 L 19.020168 101.661507 L 24.656708 103.358758 L 30.670416 103.924505 L 34.368749 103.688778 L 37.920391 102.981594 L 41.325358 101.802950 L 44.583662 100.152841 L 47.601000 98.094139 L 50.283067 95.689709 L 52.629873 92.939542 L 54.641430 89.843628 L 74.924596 89.843628 L 75.259855 89.843628 L 80.561149 88.680700 L 85.569071 87.035841 L 90.283640 84.909044 L 94.704873 82.300301 L 98.329861 79.555369 L 101.829126 76.349454 L 105.076947 72.556840 L 107.947601 68.051795 L 110.378229 62.834328 L 112.305968 56.904434 L 113.563192 50.178303 L 113.982262 42.572113 L 113.982262 1.000000 Z" transform="scale(1.000000,1.000000) translate(26.272019,1.798104)" fill="#ffffff" opacity="1.000000"></path>
    </g>
</svg>